<svg width="2962" height="1755" xmlns="http://www.w3.org/2000/svg" xmlns:xlink="http://www.w3.org/1999/xlink" xml:space="preserve" overflow="hidden"><defs><clipPath id="clip0"><rect x="224" y="2291" width="2962" height="1755"/></clipPath></defs><g clip-path="url(#clip0)" transform="translate(-224 -2291)"><rect x="225" y="2292" width="2959" height="1752" fill="#FFFFFF"/><g><path d="M366.5 3667.5 3133.5 3667.5M366.5 3615.62 3133.5 3615.62M366.5 3564.62 3133.5 3564.62M366.5 3512.62 3133.5 3512.62M366.5 3461.61 3133.5 3461.61M366.5 3409.61 3133.5 3409.61M366.5 3358.61 3133.5 3358.61M366.5 3307.61 3133.5 3307.61M366.5 3255.61 3133.5 3255.61M366.5 3204.61 3133.5 3204.61M366.5 3152.6 3133.5 3152.6M366.5 3101.6 3133.5 3101.6M366.5 3049.6 3133.5 3049.6M366.5 2998.6 3133.5 2998.6M366.5 2947.6 3133.5 2947.6M366.5 2895.6 3133.5 2895.6M366.5 2844.59 3133.5 2844.59M366.5 2792.59 3133.5 2792.59M366.5 2741.59 3133.5 2741.59M366.5 2689.59 3133.5 2689.59M366.5 2638.59 3133.5 2638.59M366.5 2587.58 3133.5 2587.58M366.5 2535.58 3133.5 2535.58M366.5 2484.58 3133.5 2484.58M366.5 2432.58 3133.5 2432.58M366.5 2381.5 3133.5 2381.5" stroke="#F2F2F2" stroke-width="3.4375" stroke-linejoin="round" stroke-miterlimit="10" fill="none"/></g><g><path d="M373.012 3638.12 424.014 3638.12 424.014 3410.11 373.012 3410.11ZM438.014 3627.12 488.016 3627.12 488.016 3410.11 438.014 3410.11ZM502.016 3616.12 553.018 3616.12 553.018 3410.11 502.016 3410.11ZM566.019 3496.11 617.02 3496.11 617.02 3410.11 566.019 3410.11ZM631.021 3485.11 681.022 3485.11 681.022 3410.11 631.021 3410.11ZM695.023 3469.11 746.024 3469.11 746.024 3410.11 695.023 3410.11ZM759.025 3467.11 810.027 3467.11 810.027 3410.11 759.025 3410.11ZM824.027 3427.11 874.029 3427.11 874.029 3410.11 824.027 3410.11ZM888.029 3426.11 939.031 3426.11 939.031 3410.11 888.029 3410.11ZM952.031 3418.11 1003.03 3418.11 1003.03 3410.11 952.031 3410.11ZM1017.03 3413.11 1067.04 3413.11 1067.04 3410.11 1017.03 3410.11ZM1145.04 3404.11 1196.04 3404.11 1196.04 3410.11 1145.04 3410.11ZM1210.04 3398.11 1261.04 3398.11 1261.04 3410.11 1210.04 3410.11ZM1274.04 3394.11 1325.04 3394.11 1325.04 3410.11 1274.04 3410.11ZM1339.04 3392.11 1389.05 3392.11 1389.05 3410.11 1339.04 3410.11ZM1403.05 3388.11 1454.05 3388.11 1454.05 3410.11 1403.05 3410.11ZM1467.05 3368.11 1518.05 3368.11 1518.05 3410.11 1467.05 3410.11ZM1532.05 3367.11 1582.05 3367.11 1582.05 3410.11 1532.05 3410.11ZM1596.05 3354.11 1647.05 3354.11 1647.05 3410.11 1596.05 3410.11ZM1660.05 3349.11 1711.06 3349.11 1711.06 3410.11 1660.05 3410.11ZM1725.06 3345.11 1775.06 3345.11 1775.06 3410.11 1725.06 3410.11ZM1789.06 3341.11 1840.06 3341.11 1840.06 3410.11 1789.06 3410.11ZM1853.06 3330.11 1904.06 3330.11 1904.06 3410.11 1853.06 3410.11ZM1918.06 3304.11 1968.06 3304.11 1968.06 3410.11 1918.06 3410.11ZM1982.07 3302.11 2033.07 3302.11 2033.07 3410.11 1982.07 3410.11ZM2046.07 3283.11 2097.07 3283.11 2097.07 3410.11 2046.07 3410.11ZM2111.07 3269.11 2162.07 3269.11 2162.07 3410.11 2111.07 3410.11ZM2175.07 3256.11 2226.07 3256.11 2226.07 3410.11 2175.07 3410.11ZM2240.07 3221.11 2290.08 3221.11 2290.08 3410.11 2240.07 3410.11ZM2304.08 3209.11 2355.08 3209.11 2355.08 3410.11 2304.08 3410.11ZM2368.08 3180.1 2419.08 3180.1 2419.08 3410.11 2368.08 3410.11ZM2433.08 3110.1 2483.08 3110.1 2483.08 3410.11 2433.08 3410.11ZM2497.08 3087.1 2548.08 3087.1 2548.08 3410.11 2497.08 3410.11ZM2561.08 3038.1 2612.09 3038.1 2612.09 3410.11 2561.08 3410.11ZM2626.09 3034.1 2676.09 3034.1 2676.09 3410.11 2626.09 3410.11ZM2690.09 2999.1 2741.09 2999.1 2741.09 3410.11 2690.09 3410.11ZM2754.09 2988.1 2805.09 2988.1 2805.09 3410.11 2754.09 3410.11ZM2819.09 2816.09 2869.09 2816.09 2869.09 3410.11 2819.09 3410.11ZM2883.09 2760.09 2934.1 2760.09 2934.1 3410.11 2883.09 3410.11ZM2947.1 2683.09 2998.1 2683.09 2998.1 3410.11 2947.1 3410.11ZM3012.1 2625.09 3063.1 2625.09 3063.1 3410.11 3012.1 3410.11ZM3076.1 2441.08 3127.1 2441.08 3127.1 3410.11 3076.1 3410.11Z" fill="#BFBFBF"/></g><g><path d="M0 0 0.000360892 1286" stroke="#D9D9D9" stroke-width="3.4375" stroke-linejoin="round" stroke-miterlimit="10" fill="none" fill-rule="evenodd" transform="matrix(1 0 0 -1 366.5 3667.5)"/></g><g><text fill="#595959" font-family="Calibri,Calibri_MSFontService,sans-serif" font-weight="400" font-size="41" transform="matrix(1 0 0 1 255.094 3679)">0,90</text></g><g><text fill="#595959" font-family="Calibri,Calibri_MSFontService,sans-serif" font-weight="400" font-size="41" transform="matrix(1 0 0 1 255.094 3422)">1,00</text></g><g><text fill="#595959" font-family="Calibri,Calibri_MSFontService,sans-serif" font-weight="400" font-size="41" transform="matrix(1 0 0 1 255.094 3164)">1,10</text></g><g><text fill="#595959" font-family="Calibri,Calibri_MSFontService,sans-serif" font-weight="400" font-size="41" transform="matrix(1 0 0 1 255.094 2907)">1,20</text></g><g><text fill="#595959" font-family="Calibri,Calibri_MSFontService,sans-serif" font-weight="400" font-size="41" transform="matrix(1 0 0 1 255.094 2650)">1,30</text></g><g><text fill="#595959" font-family="Calibri,Calibri_MSFontService,sans-serif" font-weight="400" font-size="41" transform="matrix(1 0 0 1 255.094 2393)">1,40</text></g><g><text fill="#595959" font-family="Calibri,Calibri_MSFontService,sans-serif" font-weight="700" font-size="46" transform="matrix(6.12323e-17 -1 1 6.12323e-17 414.56 3881)">hausdorff</text></g><g><text fill="#595959" font-family="Calibri,Calibri_MSFontService,sans-serif" font-weight="700" font-size="46" transform="matrix(6.12323e-17 -1 1 6.12323e-17 478.92 3819)">hwt1d</text></g><g><text fill="#595959" font-family="Calibri,Calibri_MSFontService,sans-serif" font-weight="700" font-size="46" transform="matrix(6.12323e-17 -1 1 6.12323e-17 543.28 3768)">pad</text></g><g><text fill="#595959" font-family="Calibri,Calibri_MSFontService,sans-serif" font-weight="700" font-size="46" transform="matrix(6.12323e-17 -1 1 6.12323e-17 607.639 3842)">present</text></g><g><text fill="#595959" font-family="Calibri,Calibri_MSFontService,sans-serif" font-weight="700" font-size="46" transform="matrix(6.12323e-17 -1 1 6.12323e-17 671.999 3904)">minisweep</text></g><g><text fill="#595959" font-family="Calibri,Calibri_MSFontService,sans-serif" font-weight="700" font-size="46" transform="matrix(6.12323e-17 -1 1 6.12323e-17 736.359 3847)">entropy</text></g><g><text fill="#595959" font-family="Calibri,Calibri_MSFontService,sans-serif" font-weight="700" font-size="46" transform="matrix(6.12323e-17 -1 1 6.12323e-17 800.718 3889)">perplexity</text></g><g><text fill="#595959" font-family="Calibri,Calibri_MSFontService,sans-serif" font-weight="700" font-size="46" transform="matrix(6.12323e-17 -1 1 6.12323e-17 865.078 3850)">softmax</text></g><g><text fill="#595959" font-family="Calibri,Calibri_MSFontService,sans-serif" font-weight="700" font-size="46" transform="matrix(6.12323e-17 -1 1 6.12323e-17 929.438 3781)">scan</text></g><g><text fill="#595959" font-family="Calibri,Calibri_MSFontService,sans-serif" font-weight="700" font-size="46" transform="matrix(6.12323e-17 -1 1 6.12323e-17 993.797 3824)">stddev</text></g><g><text fill="#595959" font-family="Calibri,Calibri_MSFontService,sans-serif" font-weight="700" font-size="46" transform="matrix(6.12323e-17 -1 1 6.12323e-17 1058.16 3864)">asmooth</text></g><g><text fill="#595959" font-family="Calibri,Calibri_MSFontService,sans-serif" font-weight="700" font-size="46" transform="matrix(6.12323e-17 -1 1 6.12323e-17 1122.52 3936)">jenkins-hash</text></g><g><text fill="#595959" font-family="Calibri,Calibri_MSFontService,sans-serif" font-weight="700" font-size="46" transform="matrix(6.12323e-17 -1 1 6.12323e-17 1186.88 3726)">is</text></g><g><text fill="#595959" font-family="Calibri,Calibri_MSFontService,sans-serif" font-weight="700" font-size="46" transform="matrix(6.12323e-17 -1 1 6.12323e-17 1251.24 3910)">maxpool3d</text></g><g><text fill="#595959" font-family="Calibri,Calibri_MSFontService,sans-serif" font-weight="700" font-size="46" transform="matrix(6.12323e-17 -1 1 6.12323e-17 1315.6 3817)">layout</text></g><g><text fill="#595959" font-family="Calibri,Calibri_MSFontService,sans-serif" font-weight="700" font-size="46" transform="matrix(6.12323e-17 -1 1 6.12323e-17 1379.96 3823)">dct8x8</text></g><g><text fill="#595959" font-family="Calibri,Calibri_MSFontService,sans-serif" font-weight="700" font-size="46" transform="matrix(6.12323e-17 -1 1 6.12323e-17 1444.32 3981)">compute-score</text></g><g><text fill="#595959" font-family="Calibri,Calibri_MSFontService,sans-serif" font-weight="700" font-size="46" transform="matrix(6.12323e-17 -1 1 6.12323e-17 1508.68 3859)">boxfilter</text></g><g><text fill="#595959" font-family="Calibri,Calibri_MSFontService,sans-serif" font-weight="700" font-size="46" transform="matrix(6.12323e-17 -1 1 6.12323e-17 1573.03 3855)">bilateral</text></g><g><text fill="#595959" font-family="Calibri,Calibri_MSFontService,sans-serif" font-weight="700" font-size="46" transform="matrix(6.12323e-17 -1 1 6.12323e-17 1637.39 3867)">radixsort</text></g><g><text fill="#595959" font-family="Calibri,Calibri_MSFontService,sans-serif" font-weight="700" font-size="46" transform="matrix(6.12323e-17 -1 1 6.12323e-17 1701.75 3966)">murmurhash3</text></g><g><text fill="#595959" font-family="Calibri,Calibri_MSFontService,sans-serif" font-weight="700" font-size="46" transform="matrix(6.12323e-17 -1 1 6.12323e-17 1766.11 3828)">pnpoly</text></g><g><text fill="#595959" font-family="Calibri,Calibri_MSFontService,sans-serif" font-weight="700" font-size="46" transform="matrix(6.12323e-17 -1 1 6.12323e-17 1830.47 3755)">nw</text></g><g><text fill="#595959" font-family="Calibri,Calibri_MSFontService,sans-serif" font-weight="700" font-size="46" transform="matrix(6.12323e-17 -1 1 6.12323e-17 1894.83 3741)">fft</text></g><g><text fill="#595959" font-family="Calibri,Calibri_MSFontService,sans-serif" font-weight="700" font-size="46" transform="matrix(6.12323e-17 -1 1 6.12323e-17 1959.19 3781)">pool</text></g><g><text fill="#595959" font-family="Calibri,Calibri_MSFontService,sans-serif" font-weight="700" font-size="46" transform="matrix(6.12323e-17 -1 1 6.12323e-17 2023.55 3755)">tqs</text></g><g><text fill="#595959" font-family="Calibri,Calibri_MSFontService,sans-serif" font-weight="700" font-size="46" transform="matrix(6.12323e-17 -1 1 6.12323e-17 2087.91 3750)">mr</text></g><g><text fill="#595959" font-family="Calibri,Calibri_MSFontService,sans-serif" font-weight="700" font-size="46" transform="matrix(6.12323e-17 -1 1 6.12323e-17 2152.27 3917)">bitonic-sort</text></g><g><text fill="#595959" font-family="Calibri,Calibri_MSFontService,sans-serif" font-weight="700" font-size="46" transform="matrix(6.12323e-17 -1 1 6.12323e-17 2216.63 3921)">mandelbrot</text></g><g><text fill="#595959" font-family="Calibri,Calibri_MSFontService,sans-serif" font-weight="700" font-size="46" transform="matrix(6.12323e-17 -1 1 6.12323e-17 2280.99 3803)">swish</text></g><g><text fill="#595959" font-family="Calibri,Calibri_MSFontService,sans-serif" font-weight="700" font-size="46" transform="matrix(6.12323e-17 -1 1 6.12323e-17 2345.35 3822)">chemv</text></g><g><text fill="#595959" font-family="Calibri,Calibri_MSFontService,sans-serif" font-weight="700" font-size="46" transform="matrix(6.12323e-17 -1 1 6.12323e-17 2409.71 4022)">all-pairs-distance</text></g><g><text fill="#595959" font-family="Calibri,Calibri_MSFontService,sans-serif" font-weight="700" font-size="46" transform="matrix(6.12323e-17 -1 1 6.12323e-17 2474.07 3954)">floydwarshall</text></g><g><text fill="#595959" font-family="Calibri,Calibri_MSFontService,sans-serif" font-weight="700" font-size="46" transform="matrix(6.12323e-17 -1 1 6.12323e-17 2538.43 3860)">gaussian</text></g><g><text fill="#595959" font-family="Calibri,Calibri_MSFontService,sans-serif" font-weight="700" font-size="46" transform="matrix(6.12323e-17 -1 1 6.12323e-17 2602.79 3926)">lombscargle</text></g><g><text fill="#595959" font-family="Calibri,Calibri_MSFontService,sans-serif" font-weight="700" font-size="46" transform="matrix(6.12323e-17 -1 1 6.12323e-17 2667.15 3841)">haccmk</text></g><g><text fill="#595959" font-family="Calibri,Calibri_MSFontService,sans-serif" font-weight="700" font-size="46" transform="matrix(6.12323e-17 -1 1 6.12323e-17 2731.51 3902)">minkowski</text></g><g><text fill="#595959" font-family="Calibri,Calibri_MSFontService,sans-serif" font-weight="700" font-size="46" transform="matrix(6.12323e-17 -1 1 6.12323e-17 2795.87 3789)">aidw</text></g><g><text fill="#595959" font-family="Calibri,Calibri_MSFontService,sans-serif" font-weight="700" font-size="46" transform="matrix(6.12323e-17 -1 1 6.12323e-17 2860.23 3753)">tsa</text></g><g><text fill="#595959" font-family="Calibri,Calibri_MSFontService,sans-serif" font-weight="700" font-size="46" transform="matrix(6.12323e-17 -1 1 6.12323e-17 2924.59 3769)">mrc</text></g><g><text fill="#595959" font-family="Calibri,Calibri_MSFontService,sans-serif" font-weight="700" font-size="46" transform="matrix(6.12323e-17 -1 1 6.12323e-17 2988.95 3837)">overlay</text></g><g><text fill="#595959" font-family="Calibri,Calibri_MSFontService,sans-serif" font-weight="700" font-size="46" transform="matrix(6.12323e-17 -1 1 6.12323e-17 3053.31 3755)">nlll</text></g><g><text fill="#595959" font-family="Calibri,Calibri_MSFontService,sans-serif" font-weight="700" font-size="46" transform="matrix(6.12323e-17 -1 1 6.12323e-17 3117.67 3804)">scan2</text></g><rect x="225.5" y="2292.5" width="2959" height="1752" stroke="#D9D9D9" stroke-width="3.4375" stroke-linejoin="round" stroke-miterlimit="10" fill="none"/></g></svg>